<?xml version="1.0" encoding="UTF-8" standalone="no"?>
<!-- Created with Inkscape (http://www.inkscape.org/) -->

<svg
   xmlns:dc="http://purl.org/dc/elements/1.1/"
   xmlns:cc="http://creativecommons.org/ns#"
   xmlns:rdf="http://www.w3.org/1999/02/22-rdf-syntax-ns#"
   xmlns:svg="http://www.w3.org/2000/svg"
   xmlns="http://www.w3.org/2000/svg"
   xmlns:sodipodi="http://sodipodi.sourceforge.net/DTD/sodipodi-0.dtd"
   xmlns:inkscape="http://www.inkscape.org/namespaces/inkscape"
   width="999.78229"
   height="999.77936"
   id="svg3189"
   version="1.1"
   inkscape:version="0.48.5 r10040"
   sodipodi:docname="New document 3">
  <defs
     id="defs3191" />
  <sodipodi:namedview
     id="base"
     pagecolor="#ffffff"
     bordercolor="#666666"
     borderopacity="1.0"
     inkscape:pageopacity="0.0"
     inkscape:pageshadow="2"
     inkscape:zoom="0.35"
     inkscape:cx="611.62749"
     inkscape:cy="374.91538"
     inkscape:document-units="px"
     inkscape:current-layer="layer1"
     showgrid="false"
     fit-margin-top="0"
     fit-margin-left="0"
     fit-margin-right="0"
     fit-margin-bottom="0"
     inkscape:window-width="820"
     inkscape:window-height="988"
     inkscape:window-x="10"
     inkscape:window-y="31"
     inkscape:window-maximized="0" />
  <metadata
     id="metadata3194">
    <rdf:RDF>
      <cc:Work
         rdf:about="">
        <dc:format>image/svg+xml</dc:format>
        <dc:type
           rdf:resource="http://purl.org/dc/dcmitype/StillImage" />
        <dc:title></dc:title>
      </cc:Work>
    </rdf:RDF>
  </metadata>
  <g
     inkscape:label="Layer 1"
     inkscape:groupmode="layer"
     id="layer1"
     transform="translate(37.876072,-76.169834)">
    <g
       id="g3980"
       transform="matrix(0.99832001,0,0,0.99833512,248.08999,301.29197)">
      <path
         transform="matrix(-0.22601751,-0.67401951,0.67401951,-0.22601751,-68.682209,974.23856)"
         d="m 1441.4286,690 c 0,351.0953 -284.619,635.7143 -635.71431,635.7143 C 454.61898,1325.7143 170,1041.0953 170,690 170,338.90469 454.61898,54.285706 805.71429,54.285706 1156.8096,54.285706 1441.4286,338.90469 1441.4286,690 z"
         sodipodi:ry="635.71429"
         sodipodi:rx="635.71429"
         sodipodi:cy="690"
         sodipodi:cx="805.71429"
         id="path3062-3"
         style="fill:none;stroke:#078383;stroke-width:137.23599243;stroke-linecap:butt;stroke-linejoin:round;stroke-miterlimit:4;stroke-opacity:1;stroke-dasharray:none;stroke-dashoffset:0;display:inline"
         sodipodi:type="arc" />
      <path
         transform="matrix(-0.61272136,-1.0612645,1.0612645,-0.61272136,883.8072,3417.66)"
         d="m 2438.5714,888.57141 c 0,46.54972 -37.736,84.28571 -84.2858,84.28571 -46.5497,0 -84.2857,-37.73599 -84.2857,-84.28571 0,-46.54971 37.736,-84.28571 84.2857,-84.28571 46.5498,0 84.2858,37.736 84.2858,84.28571 z"
         sodipodi:ry="84.285713"
         sodipodi:rx="84.285713"
         sodipodi:cy="888.57141"
         sodipodi:cx="2354.2856"
         id="path3080-5"
         style="fill:#bacbe2;fill-opacity:1;fill-rule:nonzero;stroke:none;display:inline"
         sodipodi:type="arc" />
      <path
         transform="matrix(-0.61272136,-1.0612645,1.0612645,-0.61272136,539.6962,3418.7035)"
         d="m 2438.5714,888.57141 c 0,46.54972 -37.736,84.28571 -84.2858,84.28571 -46.5497,0 -84.2857,-37.73599 -84.2857,-84.28571 0,-46.54971 37.736,-84.28571 84.2857,-84.28571 46.5498,0 84.2858,37.736 84.2858,84.28571 z"
         sodipodi:ry="84.285713"
         sodipodi:rx="84.285713"
         sodipodi:cy="888.57141"
         sodipodi:cx="2354.2856"
         id="path3084-7"
         style="fill:#078383;fill-opacity:1;fill-rule:nonzero;stroke:none;display:inline"
         sodipodi:type="arc" />
      <path
         inkscape:transform-center-y="-82.760631"
         inkscape:transform-center-x="143.31198"
         inkscape:connector-curvature="0"
         id="path3877-6"
         d="m 434.2346,399.75321 -219.18101,-126.4862 0.049,-253.059299"
         style="fill:none;stroke:#bacbe2;stroke-width:44.34626389;stroke-linecap:butt;stroke-linejoin:round;stroke-miterlimit:4;stroke-opacity:1;stroke-dasharray:none;display:inline"
         sodipodi:nodetypes="ccc" />
      <path
         sodipodi:type="arc"
         style="fill:#bacbe2;fill-opacity:1;fill-rule:nonzero;stroke:none;display:inline"
         id="path3082-5"
         sodipodi:cx="2354.2856"
         sodipodi:cy="888.57141"
         sodipodi:rx="84.285713"
         sodipodi:ry="84.285713"
         d="m 2438.5714,888.57141 c 0,46.54972 -37.736,84.28571 -84.2858,84.28571 -46.5497,0 -84.2857,-37.73599 -84.2857,-84.28571 0,-46.54971 37.736,-84.28571 84.2857,-84.28571 46.5498,0 84.2858,37.736 84.2858,84.28571 z"
         transform="matrix(-0.61272136,-1.0612645,1.0612645,-0.61272136,717.2201,3120.5893)" />
    </g>
  </g>
</svg>
