<?xml version="1.0" encoding="UTF-8" standalone="no"?>
<svg width="800px" height="800px" viewBox="0 0 800 800" version="1.1" xmlns="http://www.w3.org/2000/svg" xmlns:xlink="http://www.w3.org/1999/xlink" xmlns:sketch="http://www.bohemiancoding.com/sketch/ns">
    <!-- Generator: Sketch 3.5.2 (25235) - http://www.bohemiancoding.com/sketch -->
    <title>Artboard</title>
    <desc>Created with Sketch.</desc>
    <defs></defs>
    <g id="Page-1" stroke="none" stroke-width="1" fill="none" fill-rule="evenodd" sketch:type="MSPage">
        <g id="Artboard" sketch:type="MSArtboardGroup" fill="#3366CC">
            <g id="Group" sketch:type="MSLayerGroup">
                <path d="M400,800 C620.9139,800 800,620.9139 800,400 C800,179.0861 620.9139,0 400,0 C179.0861,0 0,179.0861 0,400 C0,620.9139 179.0861,800 400,800 Z M400,722 C577.835689,722 722,577.835689 722,400 C722,222.164311 577.835689,78 400,78 C222.164311,78 78,222.164311 78,400 C78,577.835689 222.164311,722 400,722 Z" id="Oval-4" sketch:type="MSShapeGroup"></path>
                <circle id="Oval-1" sketch:type="MSShapeGroup" cx="261.5" cy="480.5" r="82.5"></circle>
                <path d="M386.203588,405.765772 C385.435942,404.351597 385,402.731137 385,401.008087 L385,321.729924 C346.351089,314.877442 317,281.116378 317,240.5 C317,194.936508 353.936508,158 399.5,158 C445.063492,158 482,194.936508 482,240.5 C482,278.625907 456.137994,310.711419 421,320.170518 L421,387.124356 L480.725705,421.607007 C495.608752,407.004921 516.00277,398 538.5,398 C584.063492,398 621,434.936508 621,480.5 C621,526.063492 584.063492,563 538.5,563 C492.936508,563 456,526.063492 456,480.5 C456,470.42676 457.805345,460.77518 461.110128,451.851169 L390.65325,411.172871 C388.480273,409.918302 386.958154,407.968441 386.203588,405.765772 Z" id="Oval-1" sketch:type="MSShapeGroup"></path>
            </g>
        </g>
    </g>
</svg>