<svg xmlns="http://www.w3.org/2000/svg" width="800" height="800" viewBox="0 0 800 800">
  <g fill="none">
    <g fill="#{color}">
        <path d="M400 800C621 800 800 621 800 400 800 179 621 0 400 0 179 0 0 179 0 400 0 621 179 800 400 800ZM400 722C578 722 722 578 722 400 722 222 578 78 400 78 222 78 78 222 78 400 78 578 222 722 400 722Z"/>
        <circle cx="262" cy="481" r="83"/>
        <path d="M386 406C385 404 385 403 385 401L385 322C346 315 317 281 317 241 317 195 354 158 400 158 445 158 482 195 482 241 482 279 456 311 421 320L421 387 481 422C496 407 516 398 539 398 584 398 621 435 621 481 621 526 584 563 539 563 493 563 456 526 456 481 456 470 458 461 461 452L391 411C388 410 387 408 386 406Z"/>
    </g>
  </g>
</svg>
